<mxfile host="drawio-plugin" modified="2023-10-18T21:57:40.710Z" agent="5.0 (Macintosh; Intel Mac OS X 10_15_7) AppleWebKit/537.36 (KHTML, like Gecko) Chrome/111.0.0.0 Safari/537.36" etag="hjvHOEUnaT06HBt1-AIO" version="20.5.3" type="embed"><diagram id="23iRSUPoRavnBvh4doch" name="Page-1"><mxGraphModel dx="891" dy="1940" grid="1" gridSize="10" guides="1" tooltips="1" connect="1" arrows="1" fold="1" page="1" pageScale="1" pageWidth="827" pageHeight="1169" math="0" shadow="0"><root><mxCell id="0"/><mxCell id="1" parent="0"/><mxCell id="6" value="" style="html=1;verticalLabelPosition=bottom;labelBackgroundColor=#ffffff;verticalAlign=top;shadow=0;dashed=0;strokeWidth=1;shape=mxgraph.ios7ui.iconGrid;fillColor=#c0c0c0;gridSize=10%2C20;" vertex="1" parent="1"><mxGeometry x="317" y="-806" width="160" height="320" as="geometry"/></mxCell><mxCell id="2" value="" style="verticalLabelPosition=bottom;verticalAlign=top;html=1;shadow=0;dashed=0;strokeWidth=1;shape=mxgraph.android.phone2;strokeColor=#c0c0c0;" vertex="1" parent="1"><mxGeometry x="257" y="-906" width="360" height="560" as="geometry"/></mxCell><mxCell id="3" value="" style="endArrow=none;dashed=1;html=1;dashPattern=1 3;strokeWidth=2;rounded=0;" edge="1" parent="1"><mxGeometry width="50" height="50" relative="1" as="geometry"><mxPoint x="523" y="-326" as="sourcePoint"/><mxPoint x="523" y="-926" as="targetPoint"/></mxGeometry></mxCell><mxCell id="4" value="75%" style="endArrow=classic;startArrow=classic;html=1;rounded=0;exitX=0.044;exitY=0.284;exitDx=0;exitDy=0;exitPerimeter=0;dashed=1;spacingBottom=14;" edge="1" parent="1" source="2"><mxGeometry width="50" height="50" relative="1" as="geometry"><mxPoint x="577" y="-636" as="sourcePoint"/><mxPoint x="517" y="-746" as="targetPoint"/></mxGeometry></mxCell><mxCell id="5" value="25%" style="endArrow=classic;startArrow=classic;html=1;rounded=0;dashed=1;spacingBottom=14;" edge="1" parent="1"><mxGeometry width="50" height="50" relative="1" as="geometry"><mxPoint x="527" y="-746" as="sourcePoint"/><mxPoint x="606" y="-745" as="targetPoint"/></mxGeometry></mxCell><mxCell id="7" value="" style="endArrow=classic;startArrow=classic;html=1;rounded=0;dashed=1;" edge="1" parent="1"><mxGeometry width="50" height="50" relative="1" as="geometry"><mxPoint x="479" y="-596" as="sourcePoint"/><mxPoint x="519" y="-596" as="targetPoint"/></mxGeometry></mxCell><mxCell id="15" value="" style="endArrow=classic;startArrow=classic;html=1;rounded=0;dashed=1;" edge="1" parent="1"><mxGeometry width="50" height="50" relative="1" as="geometry"><mxPoint x="275" y="-596" as="sourcePoint"/><mxPoint x="315" y="-596" as="targetPoint"/></mxGeometry></mxCell><mxCell id="19" value="" style="endArrow=none;dashed=1;html=1;rounded=0;startArrow=none;startFill=0;" edge="1" parent="1"><mxGeometry width="50" height="50" relative="1" as="geometry"><mxPoint x="497" y="-596" as="sourcePoint"/><mxPoint x="647" y="-680" as="targetPoint"/></mxGeometry></mxCell><mxCell id="20" value="" style="endArrow=none;dashed=1;html=1;rounded=0;startArrow=none;startFill=0;" edge="1" parent="1"><mxGeometry width="50" height="50" relative="1" as="geometry"><mxPoint x="297" y="-596" as="sourcePoint"/><mxPoint x="637" y="-686" as="targetPoint"/></mxGeometry></mxCell><mxCell id="21" value="Playing field is equidistant&amp;nbsp;&lt;br&gt;from left edge of parent&lt;br&gt;and the guideline, and has&lt;br&gt;a maximum width of 75%&lt;br&gt;of the parent's width.." style="text;html=1;align=center;verticalAlign=middle;resizable=0;points=[];autosize=1;strokeColor=none;fillColor=none;" vertex="1" parent="1"><mxGeometry x="628" y="-753" width="160" height="90" as="geometry"/></mxCell><mxCell id="22" value="Next queue area" style="text;html=1;align=center;verticalAlign=middle;resizable=0;points=[];autosize=1;strokeColor=none;fillColor=none;portConstraintRotation=0;rotation=270;fontStyle=2" vertex="1" parent="1"><mxGeometry x="512" y="-531" width="110" height="30" as="geometry"/></mxCell><mxCell id="24" value="" style="rounded=1;whiteSpace=wrap;html=1;" vertex="1" parent="1"><mxGeometry x="302" y="-476" width="30" height="30" as="geometry"/></mxCell><mxCell id="25" value="" style="rounded=1;whiteSpace=wrap;html=1;" vertex="1" parent="1"><mxGeometry x="342" y="-476" width="30" height="30" as="geometry"/></mxCell><mxCell id="26" value="" style="rounded=1;whiteSpace=wrap;html=1;" vertex="1" parent="1"><mxGeometry x="382" y="-476" width="30" height="30" as="geometry"/></mxCell><mxCell id="27" value="" style="rounded=1;whiteSpace=wrap;html=1;" vertex="1" parent="1"><mxGeometry x="422" y="-476" width="30" height="30" as="geometry"/></mxCell><mxCell id="28" value="" style="rounded=1;whiteSpace=wrap;html=1;" vertex="1" parent="1"><mxGeometry x="462" y="-476" width="30" height="30" as="geometry"/></mxCell><mxCell id="30" value="" style="endArrow=none;dashed=1;html=1;rounded=0;exitX=0.5;exitY=1;exitDx=0;exitDy=0;" edge="1" parent="1" source="27"><mxGeometry width="50" height="50" relative="1" as="geometry"><mxPoint x="497" y="-461" as="sourcePoint"/><mxPoint x="491" y="-300" as="targetPoint"/></mxGeometry></mxCell><mxCell id="31" value="Buttons are &lt;br&gt;36dp X 36dp,&lt;br&gt;16dp apart." style="text;html=1;align=center;verticalAlign=middle;resizable=0;points=[];autosize=1;strokeColor=none;fillColor=none;" vertex="1" parent="1"><mxGeometry x="485" y="-327" width="90" height="60" as="geometry"/></mxCell><mxCell id="32" value="" style="endArrow=classic;startArrow=classic;html=1;rounded=0;dashed=1;" edge="1" parent="1"><mxGeometry width="50" height="50" relative="1" as="geometry"><mxPoint x="272" y="-460" as="sourcePoint"/><mxPoint x="297" y="-460" as="targetPoint"/></mxGeometry></mxCell><mxCell id="33" value="" style="endArrow=classic;startArrow=classic;html=1;rounded=0;dashed=1;" edge="1" parent="1"><mxGeometry width="50" height="50" relative="1" as="geometry"><mxPoint x="494" y="-462" as="sourcePoint"/><mxPoint x="519" y="-462" as="targetPoint"/></mxGeometry></mxCell><mxCell id="34" value="" style="endArrow=none;dashed=1;html=1;rounded=0;" edge="1" parent="1"><mxGeometry width="50" height="50" relative="1" as="geometry"><mxPoint x="287" y="-456" as="sourcePoint"/><mxPoint x="367" y="-306" as="targetPoint"/></mxGeometry></mxCell><mxCell id="35" value="" style="endArrow=none;dashed=1;html=1;rounded=0;" edge="1" parent="1"><mxGeometry width="50" height="50" relative="1" as="geometry"><mxPoint x="407" y="-306" as="sourcePoint"/><mxPoint x="507" y="-456" as="targetPoint"/></mxGeometry></mxCell><mxCell id="36" value="Row of buttons is&lt;br&gt;equidistant from left&lt;br&gt;edge of parent and the&lt;br&gt;guideline, and 8dp&lt;br&gt;below playing field." style="text;html=1;align=center;verticalAlign=middle;resizable=0;points=[];autosize=1;strokeColor=none;fillColor=none;" vertex="1" parent="1"><mxGeometry x="317" y="-311" width="140" height="90" as="geometry"/></mxCell><mxCell id="37" value="" style="endArrow=classic;startArrow=classic;html=1;rounded=0;dashed=1;entryX=0.224;entryY=0.091;entryDx=0;entryDy=0;entryPerimeter=0;exitX=0.129;exitY=0;exitDx=0;exitDy=0;exitPerimeter=0;" edge="1" parent="1"><mxGeometry width="50" height="50" relative="1" as="geometry"><mxPoint x="327.6400000000001" y="-806" as="sourcePoint"/><mxPoint x="327.6400000000001" y="-855.04" as="targetPoint"/></mxGeometry></mxCell><mxCell id="38" value="" style="endArrow=classic;startArrow=classic;html=1;rounded=0;dashed=1;entryX=0.224;entryY=0.091;entryDx=0;entryDy=0;entryPerimeter=0;exitX=0.129;exitY=0;exitDx=0;exitDy=0;exitPerimeter=0;" edge="1" parent="1"><mxGeometry width="50" height="50" relative="1" as="geometry"><mxPoint x="323.6400000000001" y="-396" as="sourcePoint"/><mxPoint x="323.6400000000001" y="-445.03999999999996" as="targetPoint"/></mxGeometry></mxCell><mxCell id="39" value="" style="endArrow=none;dashed=1;html=1;rounded=0;" edge="1" parent="1"><mxGeometry width="50" height="50" relative="1" as="geometry"><mxPoint x="177" y="-665" as="sourcePoint"/><mxPoint x="327" y="-826" as="targetPoint"/></mxGeometry></mxCell><mxCell id="40" value="" style="endArrow=none;dashed=1;html=1;rounded=0;" edge="1" parent="1"><mxGeometry width="50" height="50" relative="1" as="geometry"><mxPoint x="177" y="-626" as="sourcePoint"/><mxPoint x="323" y="-418" as="targetPoint"/></mxGeometry></mxCell><mxCell id="41" value="Distance from top of&lt;br&gt;parent to playing field&lt;br&gt;is equal to distance&lt;br&gt;from bottom of parent&lt;br&gt;to buttons" style="text;html=1;align=center;verticalAlign=middle;resizable=0;points=[];autosize=1;strokeColor=none;fillColor=none;" vertex="1" parent="1"><mxGeometry x="45" y="-692" width="140" height="90" as="geometry"/></mxCell></root></mxGraphModel></diagram></mxfile>